<mxfile host="app.diagrams.net" modified="2022-02-26T09:18:52.469Z" agent="5.0 (Windows NT 10.0; Win64; x64) AppleWebKit/537.36 (KHTML, like Gecko) Chrome/98.0.4758.102 Safari/537.36" etag="PNaRjYjUAcLneDGOGqq9" version="16.6.4" type="github">
  <diagram id="gDHOPF48_dV49PIhnDnL" name="第 1 页">
    <mxGraphModel dx="1609" dy="513" grid="1" gridSize="10" guides="1" tooltips="1" connect="1" arrows="1" fold="1" page="1" pageScale="1" pageWidth="827" pageHeight="1169" math="0" shadow="0">
      <root>
        <mxCell id="0" />
        <mxCell id="1" parent="0" />
        <mxCell id="R-34i-gqnA0KGg_EzN7v-3" style="edgeStyle=orthogonalEdgeStyle;rounded=0;orthogonalLoop=1;jettySize=auto;html=1;exitX=1;exitY=0.5;exitDx=0;exitDy=0;" edge="1" parent="1" source="R-34i-gqnA0KGg_EzN7v-1" target="R-34i-gqnA0KGg_EzN7v-2">
          <mxGeometry relative="1" as="geometry" />
        </mxCell>
        <mxCell id="R-34i-gqnA0KGg_EzN7v-1" value="&lt;h3&gt;dws&lt;/h3&gt;" style="rounded=1;whiteSpace=wrap;html=1;" vertex="1" parent="1">
          <mxGeometry x="110" y="250" width="120" height="60" as="geometry" />
        </mxCell>
        <mxCell id="R-34i-gqnA0KGg_EzN7v-2" value="&lt;h3&gt;dm&lt;/h3&gt;" style="rounded=1;whiteSpace=wrap;html=1;" vertex="1" parent="1">
          <mxGeometry x="294" y="250" width="120" height="60" as="geometry" />
        </mxCell>
        <mxCell id="R-34i-gqnA0KGg_EzN7v-5" style="edgeStyle=orthogonalEdgeStyle;rounded=0;orthogonalLoop=1;jettySize=auto;html=1;exitX=1;exitY=0.5;exitDx=0;exitDy=0;" edge="1" parent="1" source="R-34i-gqnA0KGg_EzN7v-4" target="R-34i-gqnA0KGg_EzN7v-1">
          <mxGeometry relative="1" as="geometry" />
        </mxCell>
        <mxCell id="R-34i-gqnA0KGg_EzN7v-9" style="edgeStyle=orthogonalEdgeStyle;rounded=0;orthogonalLoop=1;jettySize=auto;html=1;exitX=0.5;exitY=0;exitDx=0;exitDy=0;entryX=0.5;entryY=0;entryDx=0;entryDy=0;" edge="1" parent="1" source="R-34i-gqnA0KGg_EzN7v-4" target="R-34i-gqnA0KGg_EzN7v-2">
          <mxGeometry relative="1" as="geometry" />
        </mxCell>
        <mxCell id="R-34i-gqnA0KGg_EzN7v-4" value="dwd" style="rounded=1;whiteSpace=wrap;html=1;" vertex="1" parent="1">
          <mxGeometry x="-80" y="250" width="120" height="60" as="geometry" />
        </mxCell>
        <mxCell id="R-34i-gqnA0KGg_EzN7v-6" value="&lt;h3&gt;引入批次字段&lt;/h3&gt;" style="rounded=1;whiteSpace=wrap;html=1;" vertex="1" parent="1">
          <mxGeometry y="110" width="120" height="60" as="geometry" />
        </mxCell>
        <mxCell id="R-34i-gqnA0KGg_EzN7v-10" value="dwd" style="rounded=1;whiteSpace=wrap;html=1;" vertex="1" parent="1">
          <mxGeometry x="-80" y="250" width="120" height="60" as="geometry" />
        </mxCell>
        <mxCell id="R-34i-gqnA0KGg_EzN7v-11" value="&lt;h3&gt;dwd&lt;/h3&gt;" style="rounded=1;whiteSpace=wrap;html=1;" vertex="1" parent="1">
          <mxGeometry x="-80" y="250" width="120" height="60" as="geometry" />
        </mxCell>
      </root>
    </mxGraphModel>
  </diagram>
</mxfile>
